<svg xmlns="http://www.w3.org/2000/svg" width="200" height="60" viewBox="0 0 200 60" fill="none">
  <path d="M30 15C38.2843 15 45 21.7157 45 30C45 38.2843 38.2843 45 30 45C21.7157 45 15 38.2843 15 30C15 21.7157 21.7157 15 30 15Z" fill="#42a5f5" opacity="0.8"/>
  <path d="M30 10C41.0457 10 50 18.9543 50 30C50 41.0457 41.0457 50 30 50C18.9543 50 10 41.0457 10 30C10 18.9543 18.9543 10 30 10Z" stroke="#42a5f5" stroke-width="2" fill="none"/>
  <path d="M30 20V30L38 38" stroke="white" stroke-width="2" stroke-linecap="round" stroke-linejoin="round"/>
  <path d="M30 5C30 5 25 12 20 12C15 12 10 5 10 5" stroke="#42a5f5" stroke-width="2" fill="none"/>
  <path d="M50 5C50 5 45 12 40 12C35 12 30 5 30 5" stroke="#42a5f5" stroke-width="2" fill="none"/>
  
  <!-- MEDI text -->
  <path d="M65 25H68V40H65V25ZM70 25H73L78 35L83 25H86V40H83V30L79 38H77L73 30V40H70V25Z" fill="#42a5f5"/>
  <path d="M88 25H96C98 25 100 27 100 29V36C100 38 98 40 96 40H88V25ZM91 28V37H96C96.5 37 97 36.5 97 36V29C97 28.5 96.5 28 96 28H91Z" fill="#42a5f5"/>
  <path d="M102 25H105V37H113V40H102V25Z" fill="#42a5f5"/>
  
  <!-- CARE text -->
  <path d="M120 25H128C130 25 132 27 132 29V31C132 33 130 35 128 35H123V40H120V25ZM123 28V32H128C128.5 32 129 31.5 129 31V29C129 28.5 128.5 28 128 28H123Z" fill="#333333"/>
  <path d="M134 25H142C144 25 146 27 146 29V36C146 38 144 40 142 40H134V25ZM137 28V37H142C142.5 37 143 36.5 143 36V29C143 28.5 142.5 28 142 28H137Z" fill="#333333"/>
  <path d="M148 25H156C158 25 160 27 160 29V31C160 32.5 159 33.5 158 34L160 40H157L155 35H151V40H148V25ZM151 28V32H156C156.5 32 157 31.5 157 31V29C157 28.5 156.5 28 156 28H151Z" fill="#333333"/>
  <path d="M162 25H175V28H169V31H174V34H169V37H175V40H162V25Z" fill="#333333"/>
</svg> 